<svg width="481" height="116" viewBox="0 0 481 116" fill="none" xmlns="http://www.w3.org/2000/svg">
<g clip-path="url(#clip0_0_3)">
<path fill-rule="evenodd" clip-rule="evenodd" d="M350.595 86.1377H369.164V34.6003C369.164 25.7609 376.348 18.5691 385.187 18.5691H388.6C391.005 18.5691 393.308 19.0844 395.456 20.0996L403.413 3.32651C398.767 1.12445 393.777 1.90735e-06 388.608 1.90735e-06H385.195C366.119 1.90735e-06 350.595 15.5159 350.595 34.6003V86.1377Z" fill="black"/>
<path d="M44.3924 0H34.6003C15.5237 0 0 15.5237 0 34.6003V115.295H18.5613V85.6223C22.8717 87.7151 27.7131 88.8864 32.8199 88.8864H43.0337C62.86 88.8864 78.9928 72.7536 78.9928 52.9351V34.6081C78.9928 15.5315 63.4691 0 44.3924 0ZM60.4237 52.9195C60.4237 62.5086 52.6228 70.3017 43.0415 70.3017H32.8278C24.9644 70.3017 18.5691 63.9064 18.5691 56.043V34.5925C18.5691 25.7531 25.7609 18.5613 34.6003 18.5613H44.3924C53.2319 18.5613 60.4237 25.7531 60.4237 34.5925V52.9195Z" fill="black"/>
<path d="M18.57 115.295H18.5613V115.304L18.57 115.295Z" fill="black"/>
<path fill-rule="evenodd" clip-rule="evenodd" d="M134.653 1.90735e-06H119.215C104.652 1.90735e-06 92.5096 9.58908 90.0577 22.1689L108.197 26.37C108.556 22.0986 113.46 18.5769 119.223 18.5769H134.661C140.65 18.5769 145.71 22.3719 145.71 26.8697C145.71 29.4388 145.211 31.2348 144.234 32.2031C141.041 35.35 130.647 35.225 123.057 35.1313C122.729 35.1313 122.401 35.1313 122.066 35.1235C120.824 35.1079 119.598 35.0923 118.395 35.0923C106.753 35.0923 99.5687 39.5354 95.5862 43.2602C90.292 48.2187 87.2466 55.1997 87.2466 62.4071C87.2466 69.6145 89.9874 75.9864 94.9694 80.8747C98.6863 84.5213 105.371 88.8786 116.061 88.8786H134.653C150.989 88.8786 164.272 76.8297 164.272 62.0167V26.8619C164.272 12.0566 150.989 1.90735e-06 134.653 1.90735e-06ZM145.71 62.0167C145.71 66.5145 140.65 70.3095 134.661 70.3095H116.061C108.494 70.3095 105.808 66.0538 105.808 62.4071C105.808 60.2909 106.682 58.2997 108.268 56.8161C110.47 54.7468 113.976 53.6614 118.388 53.6614C119.824 53.6614 121.3 53.677 122.784 53.6926H122.823C130.358 53.7863 138.518 53.8878 145.71 51.8497V62.0089V62.0167Z" fill="black"/>
<path d="M219.69 1.90735e-06H209.898C190.821 1.90735e-06 175.297 15.5159 175.297 34.6003V115.295H193.859V85.6223C198.169 87.7151 203.01 88.8864 208.117 88.8864H218.331C238.157 88.8864 254.29 72.7536 254.29 52.9351V34.6081C254.282 15.5315 238.766 1.90735e-06 219.69 1.90735e-06ZM235.721 52.9195C235.721 62.5086 227.92 70.3017 218.339 70.3017H208.125C200.262 70.3017 193.866 63.9064 193.866 56.043V34.5925C193.866 25.7531 201.058 18.5613 209.898 18.5613H219.69C228.529 18.5613 235.721 25.7531 235.721 34.5925V52.9195Z" fill="black"/>
<path d="M193.867 115.295H193.859V115.304L193.867 115.295Z" fill="black"/>
<path fill-rule="evenodd" clip-rule="evenodd" d="M309.951 1.90735e-06H294.513C279.942 1.90735e-06 267.807 9.58127 265.347 22.1611L283.487 26.3622C283.846 22.0908 288.75 18.5691 294.513 18.5691H309.951C315.94 18.5691 321 22.3641 321 26.8619C321 29.431 320.5 31.227 319.524 32.1953C316.33 35.3422 305.937 35.2172 298.347 35.1235C298.019 35.1235 297.691 35.1235 297.355 35.1157C296.114 35.1001 294.888 35.0845 293.685 35.0845C282.042 35.0845 274.858 39.5276 270.876 43.2524C265.582 48.2109 262.536 55.1919 262.536 62.3993C262.536 69.6067 265.277 75.9786 270.259 80.8668C273.976 84.5135 280.66 88.8708 291.35 88.8708H309.943C326.279 88.8708 339.561 76.8219 339.561 62.0089V26.8541C339.569 12.0566 326.279 1.90735e-06 309.951 1.90735e-06ZM321.008 62.0167C321.008 66.5145 315.948 70.3095 309.958 70.3095H291.358C283.791 70.3095 281.105 66.0538 281.105 62.4071C281.105 60.2909 281.98 58.2997 283.565 56.8161C285.767 54.7468 289.273 53.6614 293.685 53.6614C295.122 53.6614 296.598 53.677 298.081 53.6926H298.12C305.656 53.7863 313.816 53.8878 321.008 51.8497V62.0089V62.0167Z" fill="black"/>
<path fill-rule="evenodd" clip-rule="evenodd" d="M451.382 1.90735e-06H435.944C421.373 1.90735e-06 409.238 9.58127 406.778 22.1611L424.918 26.3622C425.277 22.0908 430.181 18.5691 435.944 18.5691H451.382C457.371 18.5691 462.431 22.3641 462.431 26.8619C462.431 29.431 461.931 31.227 460.955 32.1953C457.761 35.3422 447.368 35.2172 439.778 35.1235C439.45 35.1235 439.122 35.1235 438.786 35.1157C437.545 35.1001 436.319 35.0845 435.116 35.0845C423.473 35.0845 416.289 39.5276 412.307 43.2524C407.013 48.2109 403.967 55.1919 403.967 62.3993C403.967 69.6067 406.708 75.9786 411.69 80.8668C415.407 84.5135 422.091 88.8708 432.781 88.8708H451.374C467.71 88.8708 480.992 76.8219 480.992 62.0089V26.8541C481 12.0566 467.717 1.90735e-06 451.382 1.90735e-06ZM462.439 62.0167C462.439 66.5145 457.379 70.3095 451.389 70.3095H432.789C425.223 70.3095 422.536 66.0538 422.536 62.4071C422.536 60.2909 423.411 58.2997 424.996 56.8161C427.198 54.7468 430.704 53.6614 435.116 53.6614C436.553 53.6614 438.029 53.677 439.512 53.6926H439.551C447.087 53.7863 455.247 53.8878 462.439 51.8497V62.0089V62.0167Z" fill="black"/>
</g>
<defs>
<clipPath id="clip0_0_3">
<rect width="481" height="115.303" fill="white"/>
</clipPath>
</defs>
</svg>
